
        <svg xmlns="http://www.w3.org/2000/svg" xmlns:xlink="http://www.w3.org/1999/xlink" version="1.1" width="3160.377780517174" 
        height="961.3311787741927" viewBox="-32.07555610343476 0 3160.377780517174 961.3311787741927">
			
			<g transform="scale(8.01888902585869) translate(10, 10)">
				<defs id="SvgjsDefs24551"><linearGradient id="SvgjsLinearGradient24556"><stop id="SvgjsStop24557" stop-color="#ef4136" offset="0"></stop><stop id="SvgjsStop24558" stop-color="#fbb040" offset="1"></stop></linearGradient></defs><g id="SvgjsG24552" featureKey="HKaMnE-0" transform="matrix(3.703472375869751,0,0,3.703472375869751,-4,11)" fill="url(#SvgjsLinearGradient24556)"><g xmlns="http://www.w3.org/2000/svg"><g><path d="M14.803,16.883c-0.021,0.261-0.24,0.458-0.497,0.458c-0.015,0-0.028,0-0.043-0.002c-0.274-0.023-0.479-0.264-0.456-0.54    c0.023-0.271,0.043-0.549,0.062-0.83C13.175,15.991,12.536,16,12,16c-0.78,0-1.77-0.017-2.85-0.071C9.487,20.284,10.407,24,12,24    c0.009,0,0.048-0.013,0.111-0.07c0.201-0.181,0.507-0.166,0.694,0.029c5.595-0.374,10.141-4.591,11.025-10.033    c-1.909,1.358-5.811,1.844-8.955,2.002C14.854,16.252,14.829,16.571,14.803,16.883z M14.078,21.757    c-0.085,0.35-0.175,0.674-0.268,0.969c-0.067,0.213-0.264,0.35-0.477,0.35c-0.05,0-0.101-0.007-0.15-0.023    c-0.264-0.083-0.409-0.364-0.326-0.627c0.087-0.275,0.169-0.577,0.248-0.903c0.065-0.269,0.336-0.434,0.604-0.368    C13.978,21.219,14.143,21.489,14.078,21.757z M14.458,19.812c-0.039,0.246-0.252,0.422-0.493,0.422    c-0.026,0-0.053-0.002-0.079-0.006c-0.272-0.043-0.459-0.299-0.416-0.572c0.049-0.305,0.094-0.621,0.136-0.948    c0.036-0.274,0.277-0.465,0.561-0.432c0.273,0.036,0.467,0.287,0.432,0.561C14.554,19.173,14.507,19.499,14.458,19.812z     M0.169,13.926c0.824,5.073,4.831,9.08,9.904,9.904c-1.217-1.712-1.735-5.025-1.941-7.962C5.195,15.662,1.882,15.144,0.169,13.926    z M8.071,14.85C8.017,13.77,8,12.78,8,12c0-0.541,0.009-1.187,0.031-1.889c-0.014,0.002-0.026,0.01-0.04,0.011    c-0.338,0.021-0.67,0.045-0.996,0.072c-0.015,0.001-0.028,0.001-0.042,0.001c-0.257,0-0.476-0.198-0.497-0.459    C6.434,9.461,6.639,9.219,6.913,9.197C7.245,9.17,7.585,9.146,7.929,9.124c0.051-0.002,0.096,0.01,0.143,0.02    c0.156-3.147,0.642-7.061,2.003-8.974C4.371,1.096,0,6.04,0,12C0,13.592,3.716,14.512,8.071,14.85z M3.873,9.543    c0.325-0.05,0.663-0.096,1.014-0.14c0.27-0.04,0.523,0.16,0.558,0.435c0.034,0.274-0.16,0.523-0.435,0.558    c-0.341,0.042-0.669,0.088-0.986,0.136c-0.025,0.004-0.051,0.006-0.076,0.006c-0.242,0-0.456-0.177-0.493-0.425    C3.412,9.839,3.601,9.584,3.873,9.543z M0.846,10.191c0.305-0.093,0.642-0.183,1.005-0.268c0.271-0.063,0.538,0.104,0.601,0.373    c0.063,0.269-0.104,0.538-0.372,0.601c-0.34,0.08-0.655,0.163-0.942,0.25c-0.048,0.015-0.098,0.022-0.146,0.022    c-0.214,0-0.412-0.139-0.479-0.354C0.433,10.551,0.581,10.272,0.846,10.191z M9.083,14.917C10.047,14.971,11.029,15,12,15    c5.779,0,12-0.939,12-3c0-6.345-4.953-11.542-11.195-11.959c-0.098,0.102-0.228,0.157-0.36,0.157    c-0.119,0-0.238-0.042-0.334-0.128C12.048,0.013,12.009,0,12,0C9.938,0,9,6.22,9,12C9,12.971,9.029,13.953,9.083,14.917z     M21.53,10.293c0.063-0.269,0.329-0.44,0.601-0.374c0.364,0.084,0.701,0.174,1.007,0.267c0.264,0.08,0.413,0.359,0.333,0.624    c-0.065,0.215-0.264,0.354-0.479,0.354c-0.048,0-0.097-0.007-0.146-0.021c-0.286-0.087-0.602-0.17-0.942-0.25    C21.636,10.831,21.468,10.562,21.53,10.293z M14.97,13.947c-0.009,0.271-0.23,0.485-0.5,0.485h-0.016    c-0.275-0.009-0.492-0.239-0.484-0.515c0.01-0.317,0.018-0.639,0.022-0.963c0.004-0.274,0.228-0.493,0.5-0.493H14.5    c0.275,0.004,0.496,0.231,0.492,0.507C14.987,13.299,14.979,13.625,14.97,13.947z M19.098,9.401c0.35,0.043,0.687,0.09,1.014,0.14    c0.272,0.041,0.461,0.296,0.419,0.569c-0.037,0.248-0.251,0.425-0.493,0.425c-0.025,0-0.051-0.002-0.076-0.006    c-0.317-0.048-0.646-0.093-0.986-0.136c-0.274-0.034-0.469-0.284-0.435-0.558C18.574,9.562,18.826,9.363,19.098,9.401z     M16.055,9.123c0.345,0.021,0.684,0.046,1.015,0.072c0.275,0.022,0.48,0.263,0.458,0.539c-0.021,0.262-0.239,0.46-0.497,0.46    c-0.014,0-0.027,0-0.041-0.001c-0.325-0.026-0.658-0.05-0.997-0.071c-0.275-0.018-0.485-0.255-0.468-0.53    C15.542,9.316,15.754,9.107,16.055,9.123z M14.802,7.099c0.026,0.319,0.052,0.646,0.073,0.978c0.018,0.276-0.19,0.514-0.467,0.532    c-0.011,0-0.021,0.001-0.033,0.001c-0.261,0-0.48-0.203-0.498-0.467c-0.021-0.326-0.045-0.646-0.071-0.96    c-0.023-0.275,0.182-0.517,0.456-0.54C14.533,6.608,14.778,6.822,14.802,7.099z M14.455,4.169c0.049,0.313,0.096,0.639,0.14,0.975    c0.035,0.274-0.158,0.525-0.432,0.561c-0.022,0.002-0.044,0.004-0.065,0.004c-0.247,0-0.462-0.184-0.495-0.436    c-0.042-0.327-0.087-0.643-0.136-0.948c-0.043-0.273,0.144-0.529,0.416-0.572C14.151,3.707,14.412,3.896,14.455,4.169z     M13.176,0.93c0.267-0.084,0.545,0.062,0.629,0.325c0.094,0.295,0.185,0.62,0.269,0.971c0.064,0.269-0.102,0.539-0.37,0.603    c-0.039,0.009-0.078,0.014-0.116,0.014c-0.227,0-0.432-0.154-0.486-0.383c-0.078-0.326-0.161-0.626-0.249-0.9    C12.768,1.295,12.913,1.014,13.176,0.93z M13.008,9.008c0.343,0.005,0.682,0.012,1.017,0.022c0.275,0.009,0.492,0.239,0.484,0.516    c0,0.004-0.002,0.006-0.002,0.01c0.252,0.019,0.456,0.219,0.464,0.478c0.008,0.321,0.016,0.647,0.022,0.977    c0.005,0.276-0.215,0.504-0.491,0.509h-0.009c-0.272,0-0.495-0.218-0.5-0.491c-0.006-0.325-0.014-0.647-0.023-0.965    c0-0.012,0.005-0.022,0.006-0.034c-0.324-0.01-0.651-0.017-0.982-0.022c-0.276-0.004-0.497-0.231-0.493-0.507    C12.505,9.226,12.741,9.017,13.008,9.008z M9.958,9.029c0.334-0.01,0.673-0.018,1.016-0.022c0.268,0.02,0.503,0.217,0.507,0.493    c0.004,0.276-0.216,0.503-0.493,0.507c-0.337,0.005-0.67,0.013-1,0.022H9.973c-0.27,0-0.492-0.214-0.5-0.485    C9.465,9.268,9.682,9.038,9.958,9.029z"></path></g></g></g><g id="SvgjsG24553" featureKey="J3GnXt-0" transform="matrix(3.732370138168335,0,0,3.732370138168335,105.4915701549507,9.546620925790723)" fill="#111111"><path d="M8.34 5.48 c2.36 0 4.1134 0.6133 5.26 1.84 l-1.36 1.46 c-1.0533 -1 -2.36 -1.5 -3.92 -1.5 s-2.84 0.53666 -3.84 1.61 s-1.5 2.4166 -1.5 4.03 c0 1.6267 0.53 2.9734 1.59 4.04 s2.3634 1.6 3.91 1.6 c1.4667 0 2.6266 -0.24666 3.48 -0.74 l0 -3.94 l-3.14 0 l0 -1.8 l5.06 0 l0 6.98 c-0.69334 0.41334 -1.53 0.73334 -2.51 0.96 s-1.93 0.34 -2.85 0.34 c-2.2266 0 -4.0466 -0.69334 -5.46 -2.08 s-2.12 -3.1734 -2.12 -5.36 c0 -2.1066 0.69666 -3.8734 2.09 -5.3 s3.1634 -2.14 5.31 -2.14 z M21.26 10.28 c1.4533 0 2.5834 0.45664 3.39 1.37 s1.2167 2.17 1.23 3.77 l0 0.5 l-7.6 0 c0 0.77334 0.31 1.4233 0.93 1.95 s1.3767 0.79666 2.27 0.81 c0.98666 0 1.8533 -0.47334 2.6 -1.42 l1.36 1.04 c-1.0133 1.2933 -2.4134 1.94 -4.2 1.94 c-1.4533 0 -2.6234 -0.46334 -3.51 -1.39 s-1.3433 -2.1234 -1.37 -3.59 c0 -1.4133 0.45666 -2.59 1.37 -3.53 s2.09 -1.4233 3.53 -1.45 z M23.96 14.48 c-0.02666 -0.89334 -0.28 -1.5767 -0.76 -2.05 s-1.14 -0.71 -1.98 -0.71 c-0.56 0 -1.0633 0.13666 -1.51 0.41 s-0.79666 0.62668 -1.05 1.06 s-0.38 0.86334 -0.38 1.29 l5.68 0 z M32.62 10.28 c1.4 0 2.5866 0.48338 3.56 1.45 s1.4667 2.1434 1.48 3.53 c0 1.4 -0.48666 2.5734 -1.46 3.52 s-2.1666 1.4333 -3.58 1.46 c-1.3867 0 -2.5666 -0.48 -3.54 -1.44 s-1.4733 -2.14 -1.5 -3.54 c0 -1.3733 0.48334 -2.54 1.45 -3.5 s2.1634 -1.4533 3.59 -1.48 z M29.5 15.26 c0 0.97334 0.28664 1.7633 0.85998 2.37 s1.3267 0.91666 2.26 0.93 c0.94666 0 1.7 -0.30334 2.26 -0.91 s0.84666 -1.4033 0.86 -2.39 c0 -0.97334 -0.28 -1.7633 -0.84 -2.37 s-1.3267 -0.91666 -2.3 -0.93 c-0.94666 0 -1.7 0.31334 -2.26 0.94 s-0.84 1.4133 -0.84 2.36 z M44.440000000000005 5.48 c1.84 0 3.2 0.54006 4.08 1.6201 l-1.56 1.42 c-0.24 -0.37334 -0.58 -0.67334 -1.02 -0.9 s-0.94666 -0.34 -1.52 -0.34 c-0.82666 0 -1.49 0.20334 -1.99 0.61 s-0.75 0.93 -0.75 1.57 c0 1.0667 0.70666 1.8133 2.12 2.24 l1.78 0.58 c1 0.32 1.7633 0.76666 2.29 1.34 s0.79 1.36 0.79 2.36 c0 1.3067 -0.46334 2.3634 -1.39 3.17 s-2.1034 1.21 -3.53 1.21 c-2.04 0 -3.5466 -0.65334 -4.52 -1.96 l1.58 -1.36 c0.30666 0.48 0.72666 0.85334 1.26 1.12 s1.1133 0.4 1.74 0.4 c0.78666 0 1.4533 -0.22666 2 -0.68 s0.82 -1.0133 0.82 -1.68 c0 -0.49334 -0.16666 -0.90668 -0.5 -1.24 s-0.93334 -0.63334 -1.8 -0.9 l-1.26 -0.42 c-1.2667 -0.42666 -2.1534 -0.97 -2.66 -1.63 s-0.76 -1.51 -0.76 -2.55 c0 -1.1067 0.44666 -2.0466 1.34 -2.82 s2.0466 -1.16 3.46 -1.16 z M55.56000000000001 5.48 c1.84 0 3.2 0.54006 4.08 1.6201 l-1.56 1.42 c-0.24 -0.37334 -0.58 -0.67334 -1.02 -0.9 s-0.94666 -0.34 -1.52 -0.34 c-0.82666 0 -1.49 0.20334 -1.99 0.61 s-0.75 0.93 -0.75 1.57 c0 1.0667 0.70666 1.8133 2.12 2.24 l1.78 0.58 c1 0.32 1.7633 0.76666 2.29 1.34 s0.79 1.36 0.79 2.36 c0 1.3067 -0.46334 2.3634 -1.39 3.17 s-2.1034 1.21 -3.53 1.21 c-2.04 0 -3.5466 -0.65334 -4.52 -1.96 l1.58 -1.36 c0.30666 0.48 0.72666 0.85334 1.26 1.12 s1.1133 0.4 1.74 0.4 c0.78666 0 1.4533 -0.22666 2 -0.68 s0.82 -1.0133 0.82 -1.68 c0 -0.49334 -0.16666 -0.90668 -0.5 -1.24 s-0.93334 -0.63334 -1.8 -0.9 l-1.26 -0.42 c-1.2667 -0.42666 -2.1534 -0.97 -2.66 -1.63 s-0.76 -1.51 -0.76 -2.55 c0 -1.1067 0.44666 -2.0466 1.34 -2.82 s2.0466 -1.16 3.46 -1.16 z M66.68 5.48 c1.84 0 3.2 0.54006 4.08 1.6201 l-1.56 1.42 c-0.24 -0.37334 -0.58 -0.67334 -1.02 -0.9 s-0.94666 -0.34 -1.52 -0.34 c-0.82666 0 -1.49 0.20334 -1.99 0.61 s-0.75 0.93 -0.75 1.57 c0 1.0667 0.70666 1.8133 2.12 2.24 l1.78 0.58 c1 0.32 1.7633 0.76666 2.29 1.34 s0.79 1.36 0.79 2.36 c0 1.3067 -0.46334 2.3634 -1.39 3.17 s-2.1034 1.21 -3.53 1.21 c-2.04 0 -3.5466 -0.65334 -4.52 -1.96 l1.58 -1.36 c0.30666 0.48 0.72666 0.85334 1.26 1.12 s1.1133 0.4 1.74 0.4 c0.78666 0 1.4533 -0.22666 2 -0.68 s0.82 -1.0133 0.82 -1.68 c0 -0.49334 -0.16666 -0.90668 -0.5 -1.24 s-0.93334 -0.63334 -1.8 -0.9 l-1.26 -0.42 c-1.2667 -0.42666 -2.1534 -0.97 -2.66 -1.63 s-0.76 -1.51 -0.76 -2.55 c0 -1.1067 0.44666 -2.0466 1.34 -2.82 s2.0466 -1.16 3.46 -1.16 z"></path></g>
			</g>
		</svg>
	