<?xml version="1.0" encoding="UTF-8" standalone="no"?>
<svg
   version="1.1"
   width="3160.377780517174"
   height="961.3311787741927"
   viewBox="-32.07555610343476 0 3160.377780517174 961.3311787741927"
   id="svg249"
   sodipodi:docname="logo.svg"
   inkscape:version="1.2.2 (732a01da63, 2022-12-09, custom)"
   inkscape:export-filename="logo.svg"
   inkscape:export-xdpi="96"
   inkscape:export-ydpi="96"
   xmlns:inkscape="http://www.inkscape.org/namespaces/inkscape"
   xmlns:sodipodi="http://sodipodi.sourceforge.net/DTD/sodipodi-0.dtd"
   xmlns:xlink="http://www.w3.org/1999/xlink"
   xmlns="http://www.w3.org/2000/svg"
   xmlns:svg="http://www.w3.org/2000/svg">
  <defs
     id="defs253">
    <linearGradient
       inkscape:collect="always"
       xlink:href="#SvgjsLinearGradient24556"
       id="linearGradient270"
       x1="0"
       y1="0"
       x2="24"
       y2="0"
       gradientUnits="userSpaceOnUse"
       gradientTransform="rotate(155.6,11.994831,11.994079)" />
  </defs>
  <sodipodi:namedview
     id="namedview251"
     pagecolor="#ffffff"
     bordercolor="#000000"
     borderopacity="0.25"
     inkscape:showpageshadow="2"
     inkscape:pageopacity="0.0"
     inkscape:pagecheckerboard="0"
     inkscape:deskcolor="#d1d1d1"
     showgrid="false"
     showguides="true"
     inkscape:zoom="0.4974089"
     inkscape:cx="1340.9491"
     inkscape:cy="481.4952"
     inkscape:window-width="1920"
     inkscape:window-height="1136"
     inkscape:window-x="1920"
     inkscape:window-y="27"
     inkscape:window-maximized="1"
     inkscape:current-layer="svg249">
    <sodipodi:guide
       position="-4.0208369,476.82035"
       orientation="1,0"
       id="guide264"
       inkscape:locked="false" />
  </sodipodi:namedview>
  <g
     transform="scale(8.01888902585869) translate(10, 10)"
     id="g247">
    <defs
       id="SvgjsDefs24551">
      <linearGradient
         id="SvgjsLinearGradient24556">
        <stop
           id="SvgjsStop24557"
           stop-color="#ef4136"
           offset="0" />
        <stop
           id="SvgjsStop24558"
           stop-color="#fbb040"
           offset="1" />
      </linearGradient>
    </defs>
    <g
       id="SvgjsG24552"
       featureKey="HKaMnE-0"
       transform="matrix(3.703472375869751,0,0,3.703472375869751,-4,11)"
       fill="url(#SvgjsLinearGradient24556)">
      <g
         id="g241">
        <g
           id="g239">
          <path
             d="m 7.4178441,8.7018865 c -0.0887,-0.246363 0.02936,-0.516237 0.263407,-0.622405 0.01366,-0.0062 0.0255,-0.01157 0.03998,-0.01595 0.259031,-0.09224 0.545279,0.04254 0.638353,0.303391 0.09101,0.256296 0.187634,0.517729 0.286414,0.78148 0.622928,-0.306728 1.201136,-0.578898 1.6892629,-0.800322 0.710334,-0.322222 1.618934,-0.715713 2.62478,-1.11269 -2.105971,-3.82681 -4.4788959,-6.83085394 -5.9296159,-6.17278 -0.0082,0.0037 -0.03834,0.03167 -0.07219,0.109589 -0.108276,0.247877 -0.393144,0.360626 -0.643996,0.260294 -4.940775,2.651916 -7.338681,8.370241 -5.89561097,13.6913655 C 1.5961281,13.098535 4.9488451,11.044008 7.7467651,9.6013195 7.6320461,9.2975825 7.5230301,8.9967475 7.4178201,8.7018735 Z m -1.353226,-4.738172 c -0.0672,-0.353852 -0.119056,-0.686096 -0.156208,-0.993169 -0.02696,-0.221656 0.09583,-0.427799 0.289809,-0.51579 0.04554,-0.02066 0.09487,-0.03535 0.146104,-0.04102 0.274709,-0.03347 0.52284,0.16253 0.555898,0.436331 0.03438,0.286378 0.08446,0.595278 0.14722,0.924791 0.05189,0.271832 -0.1267,0.53404 -0.398029,0.584648 -0.271413,0.05284 -0.533213,-0.12488 -0.584728,-0.3958 z m 0.457428,1.928259 c -0.06611,-0.240139 0.05517,-0.488411 0.274637,-0.587968 0.02368,-0.01074 0.04909,-0.02007 0.07443,-0.02717 0.265469,-0.07321 0.541522,0.08268 0.615151,0.349041 0.08137,0.298017 0.170925,0.604383 0.26776,0.919528 0.0804,0.2644 -0.06016,0.537897 -0.332434,0.625165 -0.263488,0.07999 -0.543851,-0.06845 -0.625166,-0.332435 -0.09783,-0.324579 -0.189689,-0.640879 -0.274369,-0.946165 z M 21.966337,5.3494085 C 19.120254,1.0699085 13.815835,-0.92389144 8.8555401,0.42138356 10.671053,1.4777665 12.511426,4.2808335 13.912315,6.8704115 c 2.759777,-1.025687 5.99086,-1.922568 8.054022,-1.521003 z m -7.57793,2.42288 c 0.495329,0.96123 0.919784,1.855784 1.242006,2.5661165 0.223489,0.49268 0.482158,1.0847 0.752123,1.733089 0.01189,-0.0077 0.01957,-0.01982 0.03188,-0.02654 0.299135,-0.158753 0.591568,-0.31776 0.877297,-0.477021 0.01327,-0.007 0.02509,-0.01247 0.03783,-0.01827 0.234045,-0.106172 0.515281,-0.01632 0.642225,0.212687 0.133643,0.241349 0.04693,0.54642 -0.19352,0.679648 -0.291192,0.161738 -0.59091,0.32405 -0.895097,0.486193 -0.04562,0.02289 -0.09156,0.03056 -0.138492,0.04086 1.157974,2.930366 2.332272,6.695551 1.883101,8.999924 4.812004,-3.199642 6.750215,-9.50774 4.288112,-14.9354145 -0.657664,-1.449809 -4.421821,-0.752542 -8.527476,0.738718 z m 6.015395,3.0987855 c -0.275317,0.179792 -0.564125,0.361313 -0.865598,0.546383 -0.22936,0.147965 -0.542385,0.07034 -0.687864,-0.16563 -0.144152,-0.235486 -0.07034,-0.54239 0.165637,-0.687867 0.293192,-0.179117 0.572894,-0.356507 0.841751,-0.531174 0.02111,-0.01397 0.04396,-0.02653 0.06674,-0.03687 0.220386,-0.09997 0.488391,-0.02718 0.624537,0.1833798 0.152349,0.231764 0.08558,0.542063 -0.145196,0.691767 z m 2.488947,-1.8405895 c -0.23934,0.210689 -0.509061,0.431867 -0.804525,0.659233 -0.220768,0.169324 -0.53291,0.12754 -0.701409,-0.09141 -0.168497,-0.21895 -0.12754,-0.532911 0.0905,-0.700996 0.276584,-0.213311 0.529161,-0.419025 0.754587,-0.616816 0.03751,-0.03349 0.08017,-0.06052 0.12387,-0.08035 0.194886,-0.0884 0.432624,-0.04361 0.582456,0.124505 0.181917,0.20737 0.162394,0.522593 -0.04548,0.705831 z m -9.453633,-0.901151 c -0.900206,0.349056 -1.806477,0.728315 -2.69075,1.129439 -5.2628409,2.3873315 -10.54029987,5.8123855 -9.6888919,7.6893045 2.621147,5.778288 9.2786669,8.465004 15.1354189,6.266161 0.04711,-0.133375 0.142763,-0.237173 0.262994,-0.291693 0.108367,-0.04916 0.234092,-0.06007 0.357045,-0.02141 0.08093,0.02588 0.121806,0.02161 0.130002,0.01789 1.877832,-0.851811 0.162543,-6.903756 -2.2252,-12.167508 C 14.318609,9.8672435 13.886531,8.9849325 13.439121,8.1293415 Z M 4.0140321,17.482245 c 0.05378,0.270995 -0.117852,0.536612 -0.392822,0.58887 -0.36619,0.07387 -0.710271,0.131126 -1.027363,0.172815 -0.27346,0.03625 -0.524416,-0.156325 -0.561037,-0.4307 -0.02966,-0.22264 0.09418,-0.431441 0.289981,-0.520257 0.04372,-0.01983 0.09122,-0.03369 0.141638,-0.04119 0.296396,-0.03892 0.61846,-0.09387 0.961145,-0.161448 0.269672,-0.05427 0.533795,0.121323 0.588456,0.391912 z m 4.464602,-6.037603 c -0.103759,-0.250512 0.0091,-0.536694 0.254985,-0.648234 l 0.01458,-0.0067 c 0.254156,-0.105405 0.546787,0.01441 0.653518,0.269063 0.12185,0.292817 0.247582,0.589363 0.377785,0.886077 0.109546,0.25118 -0.004,0.543154 -0.251681,0.655518 l -0.0073,0.0033 c -0.25209,0.109992 -0.547127,-0.0054 -0.6575,-0.258438 -0.132185,-0.303501 -0.259571,-0.603689 -0.384393,-0.900648 z m -1.88133,5.845263 c -0.336502,0.105425 -0.662819,0.201846 -0.981269,0.291392 -0.264642,0.07503 -0.542103,-0.07912 -0.616629,-0.345092 -0.06876,-0.241134 0.05302,-0.49073 0.273398,-0.590701 0.02276,-0.01036 0.04727,-0.01925 0.0717,-0.02594 0.308517,-0.08724 0.626722,-0.182166 0.954117,-0.283468 0.263574,-0.08222 0.544432,0.06489 0.626659,0.328462 0.08272,0.26225 -0.06456,0.547578 -0.32796,0.625339 z m 2.886054,-1.003907 c -0.322861,0.123399 -0.641911,0.240673 -0.954089,0.353732 -0.259526,0.09356 -0.545773,-0.04122 -0.639754,-0.301655 -0.08911,-0.247274 0.02762,-0.517648 0.26258,-0.624229 0.01275,-0.0058 0.02458,-0.01117 0.03776,-0.01598 0.306712,-0.110579 0.619884,-0.226289 0.937281,-0.347207 0.257873,-0.09721 0.547024,0.03187 0.645145,0.289331 0.09853,0.258371 -0.0082,0.536282 -0.288919,0.646053 z m 1.9772089,1.325605 c -0.155458,-0.279768 -0.314222,-0.56682 -0.470496,-0.860493 -0.130408,-0.243913 -0.03931,-0.54658 0.205516,-0.677403 0.01003,-0.0045 0.01869,-0.0096 0.02964,-0.01454 0.237689,-0.107818 0.520989,-0.01342 0.646441,0.21956 0.153797,0.288207 0.307846,0.569711 0.46124,0.844926 0.134547,0.240936 0.04783,0.546008 -0.192194,0.680144 -0.232337,0.143826 -0.543859,0.05015 -0.680145,-0.192194 z m 1.526404,2.524955 c -0.173926,-0.264801 -0.3514,-0.542268 -0.530274,-0.830082 -0.145064,-0.235068 -0.07299,-0.543379 0.161667,-0.689354 0.01922,-0.01089 0.03842,-0.02183 0.05755,-0.03049 0.224939,-0.102038 0.496748,-0.02329 0.630903,0.192572 0.173329,0.28044 0.34485,0.549626 0.515472,0.807142 0.151933,0.230853 0.08737,0.541244 -0.142553,0.692764 -0.225061,0.152603 -0.540824,0.08832 -0.692763,-0.142547 z m 2.502809,2.421345 c -0.20845,0.186798 -0.521935,0.16868 -0.707079,-0.03613 -0.207472,-0.229816 -0.4246,-0.488199 -0.646097,-0.773148 -0.169412,-0.218531 -0.129775,-0.532995 0.08785,-0.701992 0.0318,-0.02431 0.06525,-0.04497 0.09986,-0.06066 0.206726,-0.09377 0.457033,-0.03822 0.600811,0.148026 0.205704,0.264661 0.405223,0.503579 0.598553,0.716752 0.186879,0.206219 0.170914,0.522019 -0.0339,0.707163 z m -3.184063,-7.425904 c -0.314431,0.137136 -0.626043,0.270808 -0.935254,0.40009 -0.254156,0.105406 -0.546788,-0.01441 -0.653933,-0.269969 -0.0017,-0.0037 -6.31e-4,-0.0062 -0.0023,-0.0099 -0.237334,0.0868 -0.505734,-0.01106 -0.620014,-0.243627 -0.1399179,-0.289029 -0.2818749,-0.582607 -0.4236629,-0.880654 -0.118566,-0.249284 -0.01241,-0.547802 0.236875,-0.666372 l 0.0082,-0.0038 c 0.2477049,-0.112366 0.5408449,-0.006 0.6581759,0.240594 0.139721,0.293492 0.280028,0.583428 0.41959,0.869307 0.005,0.01092 0.0045,0.0221 0.0086,0.03345 0.299192,-0.124741 0.599877,-0.253448 0.90338,-0.385632 0.253002,-0.110375 0.548036,0.0051 0.658411,0.258056 0.109959,0.252091 -0.01862,0.539916 -0.258057,0.65841 z m 2.768909,-1.279094 c -0.300035,0.147089 -0.605452,0.294412 -0.916164,0.439749 -0.252326,0.0925 -0.547719,0.01017 -0.665379,-0.239521 -0.117661,-0.249697 -0.01109,-0.547306 0.239525,-0.665378 0.304833,-0.143769 0.604787,-0.288619 0.901594,-0.43314 l 0.0137,-0.0062 c 0.245886,-0.111538 0.536464,-0.0084 0.655699,0.235125 0.121301,0.248045 0.01869,0.547145 -0.228933,0.669357 z"
             id="path237"
             inkscape:label="path237"
             style="display:inline;fill:url(#linearGradient270)" />
        </g>
      </g>
    </g>
    <g
       id="SvgjsG24553"
       featureKey="J3GnXt-0"
       transform="matrix(3.732370138168335,0,0,3.732370138168335,105.4915701549507,9.546620925790723)"
       fill="#111111">
      <path
         d="M8.34 5.48 c2.36 0 4.1134 0.6133 5.26 1.84 l-1.36 1.46 c-1.0533 -1 -2.36 -1.5 -3.92 -1.5 s-2.84 0.53666 -3.84 1.61 s-1.5 2.4166 -1.5 4.03 c0 1.6267 0.53 2.9734 1.59 4.04 s2.3634 1.6 3.91 1.6 c1.4667 0 2.6266 -0.24666 3.48 -0.74 l0 -3.94 l-3.14 0 l0 -1.8 l5.06 0 l0 6.98 c-0.69334 0.41334 -1.53 0.73334 -2.51 0.96 s-1.93 0.34 -2.85 0.34 c-2.2266 0 -4.0466 -0.69334 -5.46 -2.08 s-2.12 -3.1734 -2.12 -5.36 c0 -2.1066 0.69666 -3.8734 2.09 -5.3 s3.1634 -2.14 5.31 -2.14 z M21.26 10.28 c1.4533 0 2.5834 0.45664 3.39 1.37 s1.2167 2.17 1.23 3.77 l0 0.5 l-7.6 0 c0 0.77334 0.31 1.4233 0.93 1.95 s1.3767 0.79666 2.27 0.81 c0.98666 0 1.8533 -0.47334 2.6 -1.42 l1.36 1.04 c-1.0133 1.2933 -2.4134 1.94 -4.2 1.94 c-1.4533 0 -2.6234 -0.46334 -3.51 -1.39 s-1.3433 -2.1234 -1.37 -3.59 c0 -1.4133 0.45666 -2.59 1.37 -3.53 s2.09 -1.4233 3.53 -1.45 z M23.96 14.48 c-0.02666 -0.89334 -0.28 -1.5767 -0.76 -2.05 s-1.14 -0.71 -1.98 -0.71 c-0.56 0 -1.0633 0.13666 -1.51 0.41 s-0.79666 0.62668 -1.05 1.06 s-0.38 0.86334 -0.38 1.29 l5.68 0 z M32.62 10.28 c1.4 0 2.5866 0.48338 3.56 1.45 s1.4667 2.1434 1.48 3.53 c0 1.4 -0.48666 2.5734 -1.46 3.52 s-2.1666 1.4333 -3.58 1.46 c-1.3867 0 -2.5666 -0.48 -3.54 -1.44 s-1.4733 -2.14 -1.5 -3.54 c0 -1.3733 0.48334 -2.54 1.45 -3.5 s2.1634 -1.4533 3.59 -1.48 z M29.5 15.26 c0 0.97334 0.28664 1.7633 0.85998 2.37 s1.3267 0.91666 2.26 0.93 c0.94666 0 1.7 -0.30334 2.26 -0.91 s0.84666 -1.4033 0.86 -2.39 c0 -0.97334 -0.28 -1.7633 -0.84 -2.37 s-1.3267 -0.91666 -2.3 -0.93 c-0.94666 0 -1.7 0.31334 -2.26 0.94 s-0.84 1.4133 -0.84 2.36 z M44.440000000000005 5.48 c1.84 0 3.2 0.54006 4.08 1.6201 l-1.56 1.42 c-0.24 -0.37334 -0.58 -0.67334 -1.02 -0.9 s-0.94666 -0.34 -1.52 -0.34 c-0.82666 0 -1.49 0.20334 -1.99 0.61 s-0.75 0.93 -0.75 1.57 c0 1.0667 0.70666 1.8133 2.12 2.24 l1.78 0.58 c1 0.32 1.7633 0.76666 2.29 1.34 s0.79 1.36 0.79 2.36 c0 1.3067 -0.46334 2.3634 -1.39 3.17 s-2.1034 1.21 -3.53 1.21 c-2.04 0 -3.5466 -0.65334 -4.52 -1.96 l1.58 -1.36 c0.30666 0.48 0.72666 0.85334 1.26 1.12 s1.1133 0.4 1.74 0.4 c0.78666 0 1.4533 -0.22666 2 -0.68 s0.82 -1.0133 0.82 -1.68 c0 -0.49334 -0.16666 -0.90668 -0.5 -1.24 s-0.93334 -0.63334 -1.8 -0.9 l-1.26 -0.42 c-1.2667 -0.42666 -2.1534 -0.97 -2.66 -1.63 s-0.76 -1.51 -0.76 -2.55 c0 -1.1067 0.44666 -2.0466 1.34 -2.82 s2.0466 -1.16 3.46 -1.16 z M55.56000000000001 5.48 c1.84 0 3.2 0.54006 4.08 1.6201 l-1.56 1.42 c-0.24 -0.37334 -0.58 -0.67334 -1.02 -0.9 s-0.94666 -0.34 -1.52 -0.34 c-0.82666 0 -1.49 0.20334 -1.99 0.61 s-0.75 0.93 -0.75 1.57 c0 1.0667 0.70666 1.8133 2.12 2.24 l1.78 0.58 c1 0.32 1.7633 0.76666 2.29 1.34 s0.79 1.36 0.79 2.36 c0 1.3067 -0.46334 2.3634 -1.39 3.17 s-2.1034 1.21 -3.53 1.21 c-2.04 0 -3.5466 -0.65334 -4.52 -1.96 l1.58 -1.36 c0.30666 0.48 0.72666 0.85334 1.26 1.12 s1.1133 0.4 1.74 0.4 c0.78666 0 1.4533 -0.22666 2 -0.68 s0.82 -1.0133 0.82 -1.68 c0 -0.49334 -0.16666 -0.90668 -0.5 -1.24 s-0.93334 -0.63334 -1.8 -0.9 l-1.26 -0.42 c-1.2667 -0.42666 -2.1534 -0.97 -2.66 -1.63 s-0.76 -1.51 -0.76 -2.55 c0 -1.1067 0.44666 -2.0466 1.34 -2.82 s2.0466 -1.16 3.46 -1.16 z M66.68 5.48 c1.84 0 3.2 0.54006 4.08 1.6201 l-1.56 1.42 c-0.24 -0.37334 -0.58 -0.67334 -1.02 -0.9 s-0.94666 -0.34 -1.52 -0.34 c-0.82666 0 -1.49 0.20334 -1.99 0.61 s-0.75 0.93 -0.75 1.57 c0 1.0667 0.70666 1.8133 2.12 2.24 l1.78 0.58 c1 0.32 1.7633 0.76666 2.29 1.34 s0.79 1.36 0.79 2.36 c0 1.3067 -0.46334 2.3634 -1.39 3.17 s-2.1034 1.21 -3.53 1.21 c-2.04 0 -3.5466 -0.65334 -4.52 -1.96 l1.58 -1.36 c0.30666 0.48 0.72666 0.85334 1.26 1.12 s1.1133 0.4 1.74 0.4 c0.78666 0 1.4533 -0.22666 2 -0.68 s0.82 -1.0133 0.82 -1.68 c0 -0.49334 -0.16666 -0.90668 -0.5 -1.24 s-0.93334 -0.63334 -1.8 -0.9 l-1.26 -0.42 c-1.2667 -0.42666 -2.1534 -0.97 -2.66 -1.63 s-0.76 -1.51 -0.76 -2.55 c0 -1.1067 0.44666 -2.0466 1.34 -2.82 s2.0466 -1.16 3.46 -1.16 z"
         id="path244" />
    </g>
  </g>
</svg>
